<?xml version="1.0" encoding="UTF-8"?>
<svg width="40px" height="39px" viewBox="0 0 40 39" version="1.1" xmlns="http://www.w3.org/2000/svg" xmlns:xlink="http://www.w3.org/1999/xlink">
    <!-- Generator: Sketch 51 (57462) - http://www.bohemiancoding.com/sketch -->
    <title>home</title>
    <desc>Created with Sketch.</desc>
    <defs></defs>
    <g id="Capstone" stroke="none" stroke-width="1" fill="none" fill-rule="evenodd">
        <g id="plant-search" transform="translate(-28.000000, -610.000000)" fill="#615A5A" fill-rule="nonzero">
            <g id="navbar" transform="translate(-5.000000, 591.000000)">
                <g id="home" transform="translate(33.000000, 19.000000)">
                    <path d="M33.3333333,24.3531128 L33.3333333,36.8988327 C33.3333333,38.0632296 32.5977083,39 31.6833333,39 L23.7083333,39 C23.2545833,39 22.8833333,38.5272374 22.8833333,37.9494163 L22.8833333,28.1439689 C22.8833333,27.5661479 22.5120833,27.0933852 22.0583333,27.0933852 L17.1083333,27.0933852 C16.6545833,27.0933852 16.2833333,27.5661479 16.2833333,28.1439689 L16.2833333,37.9494163 C16.2833333,38.5272374 15.9120833,39 15.4583333,39 L7.48333333,39 C6.56895833,39 5.83333333,38.0632296 5.83333333,36.8988327 L5.83333333,24.3531128 C5.83333333,24.0379377 5.94333333,23.7402724 6.13583333,23.5389105 L19.0608333,9.98638132 C19.3633333,9.67120623 19.8033333,9.67120623 20.1127083,9.98638132 L33.0377083,23.5389105 C33.2233333,23.7402724 33.3333333,24.0379377 33.3333333,24.3531128 Z M39.6943928,19.3302065 L33.8882425,13.2611647 L33.8882425,1.06142168 C33.8882425,0.480062088 33.5132041,0.00440423934 33.0548238,0.00440423934 L29.1655366,0.00440423934 C28.7071563,0.00440423934 28.3321179,0.480062088 28.3321179,1.06142168 L28.3321179,7.4563772 L22.1162034,0.964528416 C20.8869108,-0.321509472 19.108951,-0.321509472 17.8796584,0.964528416 L0.301469005,19.3302065 C-0.0527339414,19.7001626 -0.101350032,20.3696069 0.190346512,20.8188394 L1.96136124,23.5494678 C2.25305779,23.9987002 2.78088963,24.0603595 3.13509258,23.6904034 L19.4700991,6.62838021 C19.7756859,6.31127497 20.2201759,6.31127497 20.5327079,6.62838021 L36.8677144,23.6904034 C37.2219173,24.0603595 37.7497492,23.9987002 38.0414457,23.5494678 L39.8124604,20.8188394 C40.104157,20.3607985 40.0485957,19.7001626 39.6943928,19.3302065 Z" id="Shape"></path>
                </g>
            </g>
        </g>
    </g>
</svg>
