<?xml version="1.0" encoding="UTF-8"?>
<svg width="18px" height="23px" viewBox="0 0 18 23" version="1.1" xmlns="http://www.w3.org/2000/svg" xmlns:xlink="http://www.w3.org/1999/xlink">
    <!-- Generator: Sketch 51 (57462) - http://www.bohemiancoding.com/sketch -->
    <title>Shape</title>
    <desc>Created with Sketch.</desc>
    <defs></defs>
    <g id="Capstone" stroke="none" stroke-width="1" fill="none" fill-rule="evenodd">
        <g id="Profile" transform="translate(-136.000000, -389.000000)" fill="#615A5A" fill-rule="nonzero">
            <g id="Info" transform="translate(136.000000, 354.000000)">
                <g id="leaf">
                    <path d="M8.84209617,51.0100491 C7.0230418,54.6866971 4.01823346,57.0508986 0.550801429,57.0643826 C-0.172328827,57.0643826 -0.194786289,55.9676808 0.550801429,55.9676808 C3.44332245,55.9541967 5.96304962,54.0484526 7.61142728,51.0190384 C5.76542396,51.7336925 2.28451745,52.2730541 0.353175769,47.3244117 C5.24890235,45.3063005 7.49913998,47.8278159 8.36150649,49.369491 C8.80616423,48.2727891 9.12506018,47.081699 9.33166882,45.7872313 C9.33166882,45.7872313 3.05705412,46.7715661 2.61688787,41.3779505 C7.96625517,39.2249989 9.47090509,44.8253698 9.47090509,44.8253698 C9.54276896,44.0747583 9.61912433,42.4611683 9.61912433,42.4252109 C9.61912433,42.4252109 4.84466804,39.1126319 7.90786577,35 C13.5042651,36.9327123 10.665642,42.2993598 10.665642,42.2993598 C10.6880995,42.3712747 10.6880995,43.3690936 10.665642,43.8005828 C10.665642,43.8005828 12.6957965,39.8003179 16.7920375,41.216142 C16.6033948,47.2390128 10.41861,45.9984812 10.41861,45.9984812 C10.2209843,47.2300235 9.91556282,48.3986402 9.5203115,49.481858 C9.5203115,49.481858 13.2482501,45.355742 17.2456782,48.582922 C14.770866,54.7271492 8.84209617,51.0100491 8.84209617,51.0100491 Z" id="Shape"></path>
                </g>
            </g>
        </g>
    </g>
</svg>