<?xml version="1.0" encoding="UTF-8"?>
<svg width="375px" height="667px" viewBox="0 0 375 667" version="1.1" xmlns="http://www.w3.org/2000/svg" xmlns:xlink="http://www.w3.org/1999/xlink">
    <!-- Generator: Sketch 51 (57462) - http://www.bohemiancoding.com/sketch -->
    <title>login</title>
    <desc>Created with Sketch.</desc>
    <defs>
        <linearGradient x1="50%" y1="0%" x2="50%" y2="100%" id="linearGradient-1">
            <stop stop-color="#75BB7D" offset="0%"></stop>
            <stop stop-color="#0A8216" offset="100%"></stop>
        </linearGradient>
        <linearGradient x1="50%" y1="9.95350524%" x2="50%" y2="95.0396441%" id="linearGradient-2">
            <stop stop-color="#95DE9D" offset="0%"></stop>
            <stop stop-color="#2D7C35" offset="100%"></stop>
        </linearGradient>
    </defs>
    <g id="login" stroke="none" stroke-width="1" fill="none" fill-rule="evenodd">
        <rect fill="#EAA22C" x="0" y="0" width="375" height="667"></rect>
        <g id="bg-styling" transform="translate(-95.000000, -91.000000)">
            <g id="leaf2" transform="translate(214.000000, 498.000000)">
                <g>
                    <path d="M78.60866,251.536992 C117.878425,251.536992 117.878425,233.787788 145.455838,207.423705 C154.41506,198.858664 173.153905,176.295744 174.093689,156.172656 C174.228675,153.282291 174.093689,133.479982 174.093689,130.536992 C174.093689,114.720681 164.613429,108.652208 160.152342,97.5166494 C155.026637,84.7221049 154.326952,67.3915853 145.455838,56.9097088 C138.012662,48.1150466 134.083972,33.9372168 122.254981,28.0865262 C108.608648,21.3369675 94.5269034,17.8075486 78.60866,17.8075486 C62.4687619,17.8075486 50.0447559,11.4240293 50.9285234,17.8075486 C51.9945747,25.5077188 69.0855485,39.2073944 78.60866,56.9097088 C81.4073375,62.1121123 82.5852126,72.7133248 84.7252263,79.8603755 C93.6736904,109.745756 93.6736904,135.017174 93.6736904,156.172656 C93.6736904,177.144535 86.9493829,193.692289 78.60866,207.423705 C60.371844,237.447157 37.1121642,251.536992 78.60866,251.536992 Z" id="Oval" fill="url(#linearGradient-1)" fill-rule="evenodd" transform="translate(112.518915, 133.253710) scale(-1, 1) rotate(-30.000000) translate(-112.518915, -133.253710) "></path>
                    <path d="M97.5,250.5 C91.3540455,243.158849 86.6550434,238.572203 83.4029938,236.740063 C82.0229938,235.962598 79.0629842,232.993376 76.2848113,232.126639 C73.7723101,231.342787 68.2359614,230.782456 59.6757652,230.445648" id="Line-7" stroke="#8FBA89" stroke-width="1" stroke-linecap="square"></path>
                    <path d="M110.01303,244.800147 C103.867076,237.458996 99.1680737,232.87235 95.9160241,231.04021 C94.9960241,230.5219 93.7142897,230.102605 92.0708209,229.782326" id="Line-7" stroke="#8FBA89" stroke-width="1" stroke-linecap="square" transform="translate(101.041926, 237.291237) scale(-1, 1) rotate(30.000000) translate(-101.041926, -237.291237) "></path>
                    <path d="M112.808096,222.10377 C106.662141,214.762619 101.963139,210.175974 98.7110893,208.343833 C97.3310893,207.566368 94.3710797,204.597146 91.5929068,203.730409 C90.0920729,203.262178 85.7718949,202.579346 78.6323726,201.681913" id="Line-7" stroke="#8FBA89" stroke-width="1" stroke-linecap="square" transform="translate(95.720234, 211.892842) scale(-1, 1) rotate(30.000000) translate(-95.720234, -211.892842) "></path>
                    <path d="M115.774997,202.334881 C109.124215,195.900936 104.039238,191.8811 100.520066,190.275372 C99.0267128,189.593984 95.8235687,186.991693 92.8171973,186.232066 C90.0983198,185.545081 84.1072166,185.053995 74.8438877,184.758808" id="Line-7" stroke="#8FBA89" stroke-width="1" stroke-linecap="square" transform="translate(95.309442, 193.546845) scale(-1, 1) rotate(25.000000) translate(-95.309442, -193.546845) "></path>
                    <path d="M125.536331,176.562199 C120.267131,172.831007 116.441799,170.304541 114.060334,168.982802 C111.969473,167.822352 108.822355,166.092117 107.199646,165.499265 C105.334604,164.817878 101.033426,163.144743 97.2787817,162.385116 C95.3984577,162.004695 88.2084747,158.453562 83.1694769,159.420591 C80.4623398,159.940116 76.4813331,161.796489 71.2264567,164.989713" id="Line-7" stroke="#8FBA89" stroke-width="1" stroke-linecap="square" transform="translate(98.381394, 167.908275) scale(-1, 1) rotate(25.000000) translate(-98.381394, -167.908275) "></path>
                    <path d="M125.536331,176.562199 C120.267131,172.831007 116.441799,170.304541 114.060334,168.982802 C111.969473,167.822352 108.822355,166.092117 107.199646,165.499265 C105.334604,164.817878 101.033426,163.144743 97.2787817,162.385116 C95.3984577,162.004695 88.2084747,158.453562 83.1694769,159.420591 C80.4623398,159.940116 76.4813331,161.796489 71.2264567,164.989713" id="Line-7" stroke="#8FBA89" stroke-width="1" stroke-linecap="square" transform="translate(98.381394, 167.908275) scale(-1, 1) rotate(25.000000) translate(-98.381394, -167.908275) "></path>
                    <path d="M135.160874,153.814376 C129.891674,150.083184 126.066342,147.556718 123.684877,146.234979 C121.594016,145.074528 118.446898,143.344293 116.824188,142.751442 C115.797487,142.37634 114.516294,142.306108 112.510652,141.647761 C110.872969,141.110195 108.591046,139.978747 106.903325,139.637293 C105.677255,139.389239 105.063763,139.807816 101.391003,138.995185 C99.4311471,138.56155 94.5473277,136.336292 92.7940197,136.672768 C91.9460196,136.835507 90.8373991,138.007554 88.6863306,138.588215 C86.1777366,139.265387 82.451803,139.467016 79.147807,141.377149 C77.2096392,142.497658 74.381605,144.919122 70.6637043,148.641542" id="Line-7" stroke="#8FBA89" stroke-width="1" stroke-linecap="square" transform="translate(102.912289, 145.226324) scale(-1, 1) rotate(25.000000) translate(-102.912289, -145.226324) "></path>
                    <path d="M135.160874,153.814376 C129.891674,150.083184 126.066342,147.556718 123.684877,146.234979 C121.594016,145.074528 118.446898,143.344293 116.824188,142.751442 C115.797487,142.37634 114.516294,142.306108 112.510652,141.647761 C110.872969,141.110195 108.591046,139.978747 106.903325,139.637293 C105.677255,139.389239 105.063763,139.807816 101.391003,138.995185 C99.4311471,138.56155 94.5473277,136.336292 92.7940197,136.672768 C91.9460196,136.835507 90.8373991,138.007554 88.6863306,138.588215 C86.1777366,139.265387 82.451803,139.467016 79.147807,141.377149 C77.2096392,142.497658 74.381605,144.919122 70.6637043,148.641542" id="Line-7" stroke="#8FBA89" stroke-width="1" stroke-linecap="square" transform="translate(102.912289, 145.226324) scale(-1, 1) rotate(25.000000) translate(-102.912289, -145.226324) "></path>
                    <path d="M149.352521,127.171923 C144.083321,123.440731 140.257989,120.914265 137.876523,119.592526 C135.785663,118.432075 132.638544,116.701841 131.015835,116.108989 C129.989134,115.733887 128.70794,115.663655 126.702299,115.005308 C125.064615,114.467742 122.782693,113.336294 121.094971,112.99484 C119.868902,112.746786 119.25541,113.165363 115.58265,112.352732 C113.622794,111.919097 108.738974,109.69384 106.985666,110.030315 C106.137666,110.193054 105.029046,111.365101 102.877977,111.945762 C100.369383,112.622934 96.6434496,112.824563 93.3394536,114.734696 C91.4012858,115.855205 85.797529,120.49036 76.5281832,128.640162" id="Line-7" stroke="#8FBA89" stroke-width="1" stroke-linecap="square" transform="translate(112.940352, 119.317991) scale(-1, 1) rotate(25.000000) translate(-112.940352, -119.317991) "></path>
                    <path d="M182.069419,87.8803015 C176.800219,84.1491092 172.974887,81.6226435 170.593422,80.3009044 C168.502561,79.140454 165.355442,77.4102191 163.732733,76.8173674 C162.706032,76.4422654 161.424839,76.3720338 159.419197,75.7136864 C157.781514,75.1761204 155.499591,74.0446728 153.811869,73.7032186 C152.5858,73.4551642 151.972308,73.8737414 148.299548,73.0611111 C146.339692,72.6274757 141.455873,70.4022182 139.702565,70.7386938 C138.854565,70.9014327 138.9151,70.1994001 133.989672,73.3087124" id="Line-7" stroke="#8FBA89" stroke-width="1" stroke-linecap="square" transform="translate(158.029546, 79.292250) scale(-1, 1) rotate(-20.000000) translate(-158.029546, -79.292250) "></path>
                    <path d="M193.91428,81.2937955 C188.64508,77.5626033 184.819748,75.0361376 182.438283,73.7143985 C180.347422,72.5539481 177.200303,70.8237131 175.577594,70.2308614 C174.550893,69.8557595 173.2697,69.7855278 171.264058,69.1271804 C169.626375,68.5896145 167.344452,67.4581668 165.65673,67.1167126 C164.430661,66.8686582 163.817169,67.2872354 160.144409,66.4746051 C159.225702,66.271333 157.820297,65.7996377 155.928195,65.059519" id="Line-7" stroke="#8FBA89" stroke-width="1" stroke-linecap="square" transform="translate(174.921238, 73.176657) scale(-1, 1) rotate(-30.000000) translate(-174.921238, -73.176657) "></path>
                    <path d="M206.412676,74.0211634 C201.143476,70.2899711 197.318144,67.7635055 194.936678,66.4417664 C193.542771,65.6681328 191.662846,64.405537 189.296901,62.6539792" id="Line-7" stroke="#8FBA89" stroke-width="1" stroke-linecap="square" transform="translate(197.854788, 68.337571) scale(-1, 1) rotate(-50.000000) translate(-197.854788, -68.337571) "></path>
                    <path d="M182.069419,87.8803015 C176.800219,84.1491092 172.974887,81.6226435 170.593422,80.3009044 C168.502561,79.140454 165.355442,77.4102191 163.732733,76.8173674 C162.706032,76.4422654 161.424839,76.3720338 159.419197,75.7136864 C157.781514,75.1761204 155.499591,74.0446728 153.811869,73.7032186 C152.5858,73.4551642 151.972308,73.8737414 148.299548,73.0611111 C146.339692,72.6274757 141.455873,70.4022182 139.702565,70.7386938 C138.854565,70.9014327 138.9151,70.1994001 133.989672,73.3087124" id="Line-7" stroke="#8FBA89" stroke-width="1" stroke-linecap="square" transform="translate(158.029546, 79.292250) scale(-1, 1) rotate(-20.000000) translate(-158.029546, -79.292250) "></path>
                    <path d="M166.241037,95.0420453 C162.171721,92.6076237 159.21748,90.9592276 157.378314,90.0968571 C155.763577,89.3397196 153.333109,88.2108254 152.079917,87.8240185 C151.287013,87.5792827 150.297568,87.5334599 148.748644,87.1039202 C147.483888,86.7531846 145.721596,86.01497 144.418197,85.7921877 C143.471324,85.6303443 142.997534,85.9034456 140.161122,85.3732438 C138.993206,85.1549289 136.766359,86.0975432 135.057638,85.7921877 C134.551935,85.7018166 132.881956,85.3231093 132.572735,85.3732438 C131.917839,85.479423 132.010747,84.7288621 130.349512,85.1077154 C128.412166,85.5495373 125.534689,85.6810906 122.983067,86.9273592 C121.486252,87.6584369 117.158563,90.6826505 110,96" id="Line-7" stroke="#8FBA89" stroke-width="1" stroke-linecap="square" transform="translate(138.120519, 90.500000) scale(-1, 1) translate(-138.120519, -90.500000) "></path>
                    <path d="M223.11086,63.1574939 C182.07229,64.7776551 154.926218,68.5432481 141.672643,74.4542728 C105.417966,90.623668 89.2829704,122.275233 83.5,138.782985 C74.5459202,164.342813 74.5459202,193.248485 83.5,225.5 L102.503182,259.498284" id="Line-6" stroke-opacity="0.702813632" stroke="#ADD6A2" stroke-width="1" stroke-linecap="square"></path>
                    <path d="M82.2523546,208.390845 C75.9778016,200.499108 71.1804772,195.568464 67.8603815,193.598913 C66.4515063,192.763138 63.4295612,189.571224 60.5932576,188.639482 C58.0281846,187.796841 53.1669487,187.213962 46.0095498,186.890845" id="Line-7" stroke="#8FBA89" stroke-width="1" stroke-linecap="square" transform="translate(64.130952, 197.640845) rotate(10.000000) translate(-64.130952, -197.640845) "></path>
                    <path d="M78.8699081,186.015246 C72.3777026,177.227447 67.413968,171.736956 63.9787043,169.543773 C62.5209578,168.613101 59.3941871,165.058764 56.4594975,164.021228 C53.8054469,163.082909 48.7755838,162.433848 41.3699081,162.074043" id="Line-7" stroke="#8FBA89" stroke-width="1" stroke-linecap="square" transform="translate(60.119908, 174.044644) rotate(10.000000) translate(-60.119908, -174.044644) "></path>
                    <path d="M79.2938185,164.015246 C72.801613,155.227447 67.8378784,149.736956 64.4026147,147.543773 C62.9448682,146.613101 59.8180975,143.058764 56.8834079,142.021228 C54.2293573,141.082909 49.1994941,140.433848 41.7938185,140.074043" id="Line-7" stroke="#8FBA89" stroke-width="1" stroke-linecap="square" transform="translate(60.543818, 152.044644) rotate(10.000000) translate(-60.543818, -152.044644) "></path>
                    <path d="M81.8298534,151.288193 C76.0059532,139.62982 71.5531836,132.345836 68.4715448,129.436241 C67.1638582,128.201561 64.3589561,123.486183 61.7263624,122.109731 C59.3455188,120.864907 54.833428,120.003826 48.1900899,119.52649" id="Line-7" stroke="#8FBA89" stroke-width="1" stroke-linecap="square" transform="translate(65.009972, 135.407341) rotate(10.000000) translate(-65.009972, -135.407341) "></path>
                    <path d="M85.987188,139.369845 C80.9221206,126.487498 77.0495306,118.438792 74.369418,115.223728 C73.2321181,113.859423 70.7926845,108.648993 68.5031081,107.128032 C66.4324797,105.752517 62.5082977,104.801035 56.7305622,104.273584" id="Line-7" stroke="#8FBA89" stroke-width="1" stroke-linecap="square" transform="translate(71.358875, 121.821715) rotate(10.000000) translate(-71.358875, -121.821715) "></path>
                    <path d="M90.2988825,129.449024 C91.1462104,122.084142 91.3559824,117.203737 90.9281987,114.807808 C90.338528,111.505185 88.28811,108.986865 87.8410536,107.435642 C86.8558175,104.01701 87.0894425,100.612058 86.3689873,99.0871391 C85.6287406,97.5203289 81.684678,93.3282383 80.1944365,91.5815197 C78.8467041,90.0018367 76.2925292,88.9091249 72.5319118,88.3033845" id="Line-7" stroke="#8FBA89" stroke-width="1" stroke-linecap="square" transform="translate(81.837692, 108.876204) rotate(10.000000) translate(-81.837692, -108.876204) "></path>
                    <path d="M101.860265,108.43693 C101.270594,105.134307 102.325666,100.807496 101.878609,99.2562728 C100.893373,95.8376407 101.126998,92.4326894 100.406543,90.90777 C99.6662963,89.3409599 95.7222337,85.1488693 94.2319923,83.4021507 C92.8842599,81.8224676 90.330085,80.7297559 86.5694676,80.1240154" id="Line-7" stroke="#8FBA89" stroke-width="1" stroke-linecap="square" transform="translate(94.280944, 94.280473) rotate(10.000000) translate(-94.280944, -94.280473) "></path>
                    <path d="M112.338524,96.3061001 C111.872925,92.8681969 112.706,88.3641545 112.353008,86.7493907 C111.575075,83.1907269 111.759543,79.6463044 111.190678,78.0589222 C110.606186,76.4279335 107.491989,72.0641293 106.315307,70.2458628 C105.25115,68.6014739 103.234396,67.4640032 100.265046,66.8334508" id="Line-7" stroke="#8FBA89" stroke-width="1" stroke-linecap="square" transform="translate(106.353959, 81.569775) rotate(10.000000) translate(-106.353959, -81.569775) "></path>
                    <path d="M125.53991,84.3061001 C125.074311,80.8681969 125.907386,76.3641545 125.554394,74.7493907 C124.776461,71.1907269 124.960929,67.6463044 124.392064,66.0589222 C123.807572,64.4279335 120.693375,60.0641293 119.516693,58.2458628 C118.452536,56.6014739 116.435782,55.4640032 113.466432,54.8334508" id="Line-7" stroke="#8FBA89" stroke-width="1" stroke-linecap="square" transform="translate(119.555345, 69.569775) rotate(10.000000) translate(-119.555345, -69.569775) "></path>
                    <path d="M134.198277,79.1613245 C133.897223,75.5964745 134.435886,70.9261175 134.207643,69.2517275 C133.704634,65.5616577 136.312363,60.1846215 135.944536,58.5386242 C135.566606,56.8474101 131.064525,54.0242034 130.303687,52.1387962 C129.615606,50.4336871 128.31158,49.2542146 126.391609,48.6003787" id="Line-7" stroke="#8FBA89" stroke-width="1" stroke-linecap="square" transform="translate(131.185921, 63.880852) rotate(10.000000) translate(-131.185921, -63.880852) "></path>
                    <path d="M145.389687,73.1335576 C145.088633,69.5687077 146.475934,64.9621474 146.247691,63.2877575 C145.744682,59.5976877 147.157769,55.7234612 146.789943,54.077464 C146.412013,52.3862499 144.054372,48.4193116 143.293534,46.5339045 C142.605454,44.8287954 140.701949,43.5083645 137.583019,42.5726119" id="Line-7" stroke="#8FBA89" stroke-width="1" stroke-linecap="square" transform="translate(142.217428, 57.853085) rotate(10.000000) translate(-142.217428, -57.853085) "></path>
                    <path d="M158.065089,69.3659314 C157.793615,65.8010814 159.044603,61.1945212 158.838786,59.5201312 C158.385202,55.8300614 159.659442,51.9558349 159.327758,50.3098377 C158.986962,48.6186236 156.860979,44.6516854 156.1749,42.7662782 C155.554429,41.0611691 153.216905,39.758541 149.162329,38.858394" id="Line-7" stroke="#8FBA89" stroke-width="1" stroke-linecap="square" transform="translate(154.272949, 54.112163) rotate(18.000000) translate(-154.272949, -54.112163) "></path>
                    <path d="M167.211673,69.1986996 C167.042824,65.6335885 169.322261,61.7208626 169.795116,61.5672226 C171.04561,61.1609125 170.883463,51.0286202 170.677164,49.3825024 C170.465198,47.6911644 166.462749,44.4826432 166.036026,42.5970979 C165.650109,40.891864 164.636666,39.9022726 162.995696,39.6283238" id="Line-7" stroke="#8FBA89" stroke-width="1" stroke-linecap="square" transform="translate(166.907330, 54.413512) rotate(18.000000) translate(-166.907330, -54.413512) "></path>
                    <path d="M182.578307,68.6304828 C182.409458,65.7728928 184.688895,62.6366746 185.161751,62.5135255 C186.412245,62.1878505 186.250097,54.0663822 186.043798,52.746948 C185.831832,51.3912678 181.829383,48.8195 181.40266,47.3081543 C181.016744,45.9413359 179.655572,44.9952233 177.319146,44.4698166" id="Line-7" stroke="#8FBA89" stroke-width="1" stroke-linecap="square" transform="translate(181.752372, 56.550150) rotate(38.000000) translate(-181.752372, -56.550150) "></path>
                    <path d="M182.578307,68.6304828 C182.409458,65.7728928 184.688895,62.6366746 185.161751,62.5135255 C186.412245,62.1878505 186.250097,54.0663822 186.043798,52.746948 C185.831832,51.3912678 181.829383,48.8195 181.40266,47.3081543 C181.016744,45.9413359 179.655572,44.9952233 177.319146,44.4698166" id="Line-7" stroke="#8FBA89" stroke-width="1" stroke-linecap="square" transform="translate(181.752372, 56.550150) rotate(38.000000) translate(-181.752372, -56.550150) "></path>
                    <path d="M194.930826,69.5317585 C194.761976,66.6741686 197.041413,63.5379504 197.514269,63.4148013 C198.764763,63.0891263 198.602615,54.967658 198.396316,53.6482238 C198.373549,53.5026132 197.272447,52.5111761 195.093009,50.6739125" id="Line-7" stroke="#8FBA89" stroke-width="1" stroke-linecap="square" transform="translate(196.730013, 60.102836) rotate(48.000000) translate(-196.730013, -60.102836) "></path>
                    <path d="M208.209087,68.846521 C208.165046,64.9411683 209.423262,62.6585953 209.896117,62.5354462 C210.32428,61.7185259 211.131276,58.6697227 211.172589,56.3601576 C211.206633,54.4569461 211.987231,54.0048296 211.899312,53.4425217" id="Line-7" stroke="#8FBA89" stroke-width="1" stroke-linecap="square" transform="translate(210.057086, 61.144521) rotate(59.000000) translate(-210.057086, -61.144521) "></path>
                    <path d="M86.5,230.5 C80.8734219,222.608263 76.5715186,217.677619 73.5942901,215.708068 C72.3309098,214.872293 69.6210418,211.680379 67.0776441,210.748637 C64.777467,209.905996 60.4182523,209.323117 54,209" id="Line-7" stroke="#8FBA89" stroke-width="1" stroke-linecap="square"></path>
                </g>
            </g>
            <g id="leaf2" transform="translate(151.465308, 140.094079) scale(-1, -1) rotate(-3.000000) translate(-151.465308, -140.094079) translate(38.465308, 6.594079)">
                <g>
                    <path d="M78.60866,251.536992 C117.878425,251.536992 117.878425,233.787788 145.455838,207.423705 C154.41506,198.858664 173.153905,176.295744 174.093689,156.172656 C174.228675,153.282291 174.093689,133.479982 174.093689,130.536992 C174.093689,114.720681 164.613429,108.652208 160.152342,97.5166494 C155.026637,84.7221049 154.326952,67.3915853 145.455838,56.9097088 C138.012662,48.1150466 134.083972,33.9372168 122.254981,28.0865262 C108.608648,21.3369675 94.5269034,17.8075486 78.60866,17.8075486 C62.4687619,17.8075486 50.0447559,11.4240293 50.9285234,17.8075486 C51.9945747,25.5077188 69.0855485,39.2073944 78.60866,56.9097088 C81.4073375,62.1121123 82.5852126,72.7133248 84.7252263,79.8603755 C93.6736904,109.745756 93.6736904,135.017174 93.6736904,156.172656 C93.6736904,177.144535 86.9493829,193.692289 78.60866,207.423705 C60.371844,237.447157 37.1121642,251.536992 78.60866,251.536992 Z" id="Oval" fill="url(#linearGradient-1)" fill-rule="evenodd" transform="translate(112.518915, 133.253710) scale(-1, 1) rotate(-30.000000) translate(-112.518915, -133.253710) "></path>
                    <path d="M97.5,250.5 C91.3540455,243.158849 86.6550434,238.572203 83.4029938,236.740063 C82.0229938,235.962598 79.0629842,232.993376 76.2848113,232.126639 C73.7723101,231.342787 68.2359614,230.782456 59.6757652,230.445648" id="Line-7" stroke="#8FBA89" stroke-width="1" stroke-linecap="square"></path>
                    <path d="M110.01303,244.800147 C103.867076,237.458996 99.1680737,232.87235 95.9160241,231.04021 C94.9960241,230.5219 93.7142897,230.102605 92.0708209,229.782326" id="Line-7" stroke="#8FBA89" stroke-width="1" stroke-linecap="square" transform="translate(101.041926, 237.291237) scale(-1, 1) rotate(30.000000) translate(-101.041926, -237.291237) "></path>
                    <path d="M112.808096,222.10377 C106.662141,214.762619 101.963139,210.175974 98.7110893,208.343833 C97.3310893,207.566368 94.3710797,204.597146 91.5929068,203.730409 C90.0920729,203.262178 85.7718949,202.579346 78.6323726,201.681913" id="Line-7" stroke="#8FBA89" stroke-width="1" stroke-linecap="square" transform="translate(95.720234, 211.892842) scale(-1, 1) rotate(30.000000) translate(-95.720234, -211.892842) "></path>
                    <path d="M115.774997,202.334881 C109.124215,195.900936 104.039238,191.8811 100.520066,190.275372 C99.0267128,189.593984 95.8235687,186.991693 92.8171973,186.232066 C90.0983198,185.545081 84.1072166,185.053995 74.8438877,184.758808" id="Line-7" stroke="#8FBA89" stroke-width="1" stroke-linecap="square" transform="translate(95.309442, 193.546845) scale(-1, 1) rotate(25.000000) translate(-95.309442, -193.546845) "></path>
                    <path d="M125.536331,176.562199 C120.267131,172.831007 116.441799,170.304541 114.060334,168.982802 C111.969473,167.822352 108.822355,166.092117 107.199646,165.499265 C105.334604,164.817878 101.033426,163.144743 97.2787817,162.385116 C95.3984577,162.004695 88.2084747,158.453562 83.1694769,159.420591 C80.4623398,159.940116 76.4813331,161.796489 71.2264567,164.989713" id="Line-7" stroke="#8FBA89" stroke-width="1" stroke-linecap="square" transform="translate(98.381394, 167.908275) scale(-1, 1) rotate(25.000000) translate(-98.381394, -167.908275) "></path>
                    <path d="M125.536331,176.562199 C120.267131,172.831007 116.441799,170.304541 114.060334,168.982802 C111.969473,167.822352 108.822355,166.092117 107.199646,165.499265 C105.334604,164.817878 101.033426,163.144743 97.2787817,162.385116 C95.3984577,162.004695 88.2084747,158.453562 83.1694769,159.420591 C80.4623398,159.940116 76.4813331,161.796489 71.2264567,164.989713" id="Line-7" stroke="#8FBA89" stroke-width="1" stroke-linecap="square" transform="translate(98.381394, 167.908275) scale(-1, 1) rotate(25.000000) translate(-98.381394, -167.908275) "></path>
                    <path d="M135.160874,153.814376 C129.891674,150.083184 126.066342,147.556718 123.684877,146.234979 C121.594016,145.074528 118.446898,143.344293 116.824188,142.751442 C115.797487,142.37634 114.516294,142.306108 112.510652,141.647761 C110.872969,141.110195 108.591046,139.978747 106.903325,139.637293 C105.677255,139.389239 105.063763,139.807816 101.391003,138.995185 C99.4311471,138.56155 94.5473277,136.336292 92.7940197,136.672768 C91.9460196,136.835507 90.8373991,138.007554 88.6863306,138.588215 C86.1777366,139.265387 82.451803,139.467016 79.147807,141.377149 C77.2096392,142.497658 74.381605,144.919122 70.6637043,148.641542" id="Line-7" stroke="#8FBA89" stroke-width="1" stroke-linecap="square" transform="translate(102.912289, 145.226324) scale(-1, 1) rotate(25.000000) translate(-102.912289, -145.226324) "></path>
                    <path d="M135.160874,153.814376 C129.891674,150.083184 126.066342,147.556718 123.684877,146.234979 C121.594016,145.074528 118.446898,143.344293 116.824188,142.751442 C115.797487,142.37634 114.516294,142.306108 112.510652,141.647761 C110.872969,141.110195 108.591046,139.978747 106.903325,139.637293 C105.677255,139.389239 105.063763,139.807816 101.391003,138.995185 C99.4311471,138.56155 94.5473277,136.336292 92.7940197,136.672768 C91.9460196,136.835507 90.8373991,138.007554 88.6863306,138.588215 C86.1777366,139.265387 82.451803,139.467016 79.147807,141.377149 C77.2096392,142.497658 74.381605,144.919122 70.6637043,148.641542" id="Line-7" stroke="#8FBA89" stroke-width="1" stroke-linecap="square" transform="translate(102.912289, 145.226324) scale(-1, 1) rotate(25.000000) translate(-102.912289, -145.226324) "></path>
                    <path d="M149.352521,127.171923 C144.083321,123.440731 140.257989,120.914265 137.876523,119.592526 C135.785663,118.432075 132.638544,116.701841 131.015835,116.108989 C129.989134,115.733887 128.70794,115.663655 126.702299,115.005308 C125.064615,114.467742 122.782693,113.336294 121.094971,112.99484 C119.868902,112.746786 119.25541,113.165363 115.58265,112.352732 C113.622794,111.919097 108.738974,109.69384 106.985666,110.030315 C106.137666,110.193054 105.029046,111.365101 102.877977,111.945762 C100.369383,112.622934 96.6434496,112.824563 93.3394536,114.734696 C91.4012858,115.855205 85.797529,120.49036 76.5281832,128.640162" id="Line-7" stroke="#8FBA89" stroke-width="1" stroke-linecap="square" transform="translate(112.940352, 119.317991) scale(-1, 1) rotate(25.000000) translate(-112.940352, -119.317991) "></path>
                    <path d="M182.069419,87.8803015 C176.800219,84.1491092 172.974887,81.6226435 170.593422,80.3009044 C168.502561,79.140454 165.355442,77.4102191 163.732733,76.8173674 C162.706032,76.4422654 161.424839,76.3720338 159.419197,75.7136864 C157.781514,75.1761204 155.499591,74.0446728 153.811869,73.7032186 C152.5858,73.4551642 151.972308,73.8737414 148.299548,73.0611111 C146.339692,72.6274757 141.455873,70.4022182 139.702565,70.7386938 C138.854565,70.9014327 138.9151,70.1994001 133.989672,73.3087124" id="Line-7" stroke="#8FBA89" stroke-width="1" stroke-linecap="square" transform="translate(158.029546, 79.292250) scale(-1, 1) rotate(-20.000000) translate(-158.029546, -79.292250) "></path>
                    <path d="M193.91428,81.2937955 C188.64508,77.5626033 184.819748,75.0361376 182.438283,73.7143985 C180.347422,72.5539481 177.200303,70.8237131 175.577594,70.2308614 C174.550893,69.8557595 173.2697,69.7855278 171.264058,69.1271804 C169.626375,68.5896145 167.344452,67.4581668 165.65673,67.1167126 C164.430661,66.8686582 163.817169,67.2872354 160.144409,66.4746051 C159.225702,66.271333 157.820297,65.7996377 155.928195,65.059519" id="Line-7" stroke="#8FBA89" stroke-width="1" stroke-linecap="square" transform="translate(174.921238, 73.176657) scale(-1, 1) rotate(-30.000000) translate(-174.921238, -73.176657) "></path>
                    <path d="M206.412676,74.0211634 C201.143476,70.2899711 197.318144,67.7635055 194.936678,66.4417664 C193.542771,65.6681328 191.662846,64.405537 189.296901,62.6539792" id="Line-7" stroke="#8FBA89" stroke-width="1" stroke-linecap="square" transform="translate(197.854788, 68.337571) scale(-1, 1) rotate(-50.000000) translate(-197.854788, -68.337571) "></path>
                    <path d="M182.069419,87.8803015 C176.800219,84.1491092 172.974887,81.6226435 170.593422,80.3009044 C168.502561,79.140454 165.355442,77.4102191 163.732733,76.8173674 C162.706032,76.4422654 161.424839,76.3720338 159.419197,75.7136864 C157.781514,75.1761204 155.499591,74.0446728 153.811869,73.7032186 C152.5858,73.4551642 151.972308,73.8737414 148.299548,73.0611111 C146.339692,72.6274757 141.455873,70.4022182 139.702565,70.7386938 C138.854565,70.9014327 138.9151,70.1994001 133.989672,73.3087124" id="Line-7" stroke="#8FBA89" stroke-width="1" stroke-linecap="square" transform="translate(158.029546, 79.292250) scale(-1, 1) rotate(-20.000000) translate(-158.029546, -79.292250) "></path>
                    <path d="M166.241037,95.0420453 C162.171721,92.6076237 159.21748,90.9592276 157.378314,90.0968571 C155.763577,89.3397196 153.333109,88.2108254 152.079917,87.8240185 C151.287013,87.5792827 150.297568,87.5334599 148.748644,87.1039202 C147.483888,86.7531846 145.721596,86.01497 144.418197,85.7921877 C143.471324,85.6303443 142.997534,85.9034456 140.161122,85.3732438 C138.993206,85.1549289 136.766359,86.0975432 135.057638,85.7921877 C134.551935,85.7018166 132.881956,85.3231093 132.572735,85.3732438 C131.917839,85.479423 132.010747,84.7288621 130.349512,85.1077154 C128.412166,85.5495373 125.534689,85.6810906 122.983067,86.9273592 C121.486252,87.6584369 117.158563,90.6826505 110,96" id="Line-7" stroke="#8FBA89" stroke-width="1" stroke-linecap="square" transform="translate(138.120519, 90.500000) scale(-1, 1) translate(-138.120519, -90.500000) "></path>
                    <path d="M223.11086,63.1574939 C182.07229,64.7776551 154.926218,68.5432481 141.672643,74.4542728 C105.417966,90.623668 89.2829704,122.275233 83.5,138.782985 C74.5459202,164.342813 74.5459202,193.248485 83.5,225.5 L102.503182,259.498284" id="Line-6" stroke-opacity="0.702813632" stroke="#ADD6A2" stroke-width="1" stroke-linecap="square"></path>
                    <path d="M82.2523546,208.390845 C75.9778016,200.499108 71.1804772,195.568464 67.8603815,193.598913 C66.4515063,192.763138 63.4295612,189.571224 60.5932576,188.639482 C58.0281846,187.796841 53.1669487,187.213962 46.0095498,186.890845" id="Line-7" stroke="#8FBA89" stroke-width="1" stroke-linecap="square" transform="translate(64.130952, 197.640845) rotate(10.000000) translate(-64.130952, -197.640845) "></path>
                    <path d="M78.8699081,186.015246 C72.3777026,177.227447 67.413968,171.736956 63.9787043,169.543773 C62.5209578,168.613101 59.3941871,165.058764 56.4594975,164.021228 C53.8054469,163.082909 48.7755838,162.433848 41.3699081,162.074043" id="Line-7" stroke="#8FBA89" stroke-width="1" stroke-linecap="square" transform="translate(60.119908, 174.044644) rotate(10.000000) translate(-60.119908, -174.044644) "></path>
                    <path d="M79.2938185,164.015246 C72.801613,155.227447 67.8378784,149.736956 64.4026147,147.543773 C62.9448682,146.613101 59.8180975,143.058764 56.8834079,142.021228 C54.2293573,141.082909 49.1994941,140.433848 41.7938185,140.074043" id="Line-7" stroke="#8FBA89" stroke-width="1" stroke-linecap="square" transform="translate(60.543818, 152.044644) rotate(10.000000) translate(-60.543818, -152.044644) "></path>
                    <path d="M81.8298534,151.288193 C76.0059532,139.62982 71.5531836,132.345836 68.4715448,129.436241 C67.1638582,128.201561 64.3589561,123.486183 61.7263624,122.109731 C59.3455188,120.864907 54.833428,120.003826 48.1900899,119.52649" id="Line-7" stroke="#8FBA89" stroke-width="1" stroke-linecap="square" transform="translate(65.009972, 135.407341) rotate(10.000000) translate(-65.009972, -135.407341) "></path>
                    <path d="M85.987188,139.369845 C80.9221206,126.487498 77.0495306,118.438792 74.369418,115.223728 C73.2321181,113.859423 70.7926845,108.648993 68.5031081,107.128032 C66.4324797,105.752517 62.5082977,104.801035 56.7305622,104.273584" id="Line-7" stroke="#8FBA89" stroke-width="1" stroke-linecap="square" transform="translate(71.358875, 121.821715) rotate(10.000000) translate(-71.358875, -121.821715) "></path>
                    <path d="M90.2988825,129.449024 C91.1462104,122.084142 91.3559824,117.203737 90.9281987,114.807808 C90.338528,111.505185 88.28811,108.986865 87.8410536,107.435642 C86.8558175,104.01701 87.0894425,100.612058 86.3689873,99.0871391 C85.6287406,97.5203289 81.684678,93.3282383 80.1944365,91.5815197 C78.8467041,90.0018367 76.2925292,88.9091249 72.5319118,88.3033845" id="Line-7" stroke="#8FBA89" stroke-width="1" stroke-linecap="square" transform="translate(81.837692, 108.876204) rotate(10.000000) translate(-81.837692, -108.876204) "></path>
                    <path d="M101.860265,108.43693 C101.270594,105.134307 102.325666,100.807496 101.878609,99.2562728 C100.893373,95.8376407 101.126998,92.4326894 100.406543,90.90777 C99.6662963,89.3409599 95.7222337,85.1488693 94.2319923,83.4021507 C92.8842599,81.8224676 90.330085,80.7297559 86.5694676,80.1240154" id="Line-7" stroke="#8FBA89" stroke-width="1" stroke-linecap="square" transform="translate(94.280944, 94.280473) rotate(10.000000) translate(-94.280944, -94.280473) "></path>
                    <path d="M112.338524,96.3061001 C111.872925,92.8681969 112.706,88.3641545 112.353008,86.7493907 C111.575075,83.1907269 111.759543,79.6463044 111.190678,78.0589222 C110.606186,76.4279335 107.491989,72.0641293 106.315307,70.2458628 C105.25115,68.6014739 103.234396,67.4640032 100.265046,66.8334508" id="Line-7" stroke="#8FBA89" stroke-width="1" stroke-linecap="square" transform="translate(106.353959, 81.569775) rotate(10.000000) translate(-106.353959, -81.569775) "></path>
                    <path d="M125.53991,84.3061001 C125.074311,80.8681969 125.907386,76.3641545 125.554394,74.7493907 C124.776461,71.1907269 124.960929,67.6463044 124.392064,66.0589222 C123.807572,64.4279335 120.693375,60.0641293 119.516693,58.2458628 C118.452536,56.6014739 116.435782,55.4640032 113.466432,54.8334508" id="Line-7" stroke="#8FBA89" stroke-width="1" stroke-linecap="square" transform="translate(119.555345, 69.569775) rotate(10.000000) translate(-119.555345, -69.569775) "></path>
                    <path d="M134.198277,79.1613245 C133.897223,75.5964745 134.435886,70.9261175 134.207643,69.2517275 C133.704634,65.5616577 136.312363,60.1846215 135.944536,58.5386242 C135.566606,56.8474101 131.064525,54.0242034 130.303687,52.1387962 C129.615606,50.4336871 128.31158,49.2542146 126.391609,48.6003787" id="Line-7" stroke="#8FBA89" stroke-width="1" stroke-linecap="square" transform="translate(131.185921, 63.880852) rotate(10.000000) translate(-131.185921, -63.880852) "></path>
                    <path d="M145.389687,73.1335576 C145.088633,69.5687077 146.475934,64.9621474 146.247691,63.2877575 C145.744682,59.5976877 147.157769,55.7234612 146.789943,54.077464 C146.412013,52.3862499 144.054372,48.4193116 143.293534,46.5339045 C142.605454,44.8287954 140.701949,43.5083645 137.583019,42.5726119" id="Line-7" stroke="#8FBA89" stroke-width="1" stroke-linecap="square" transform="translate(142.217428, 57.853085) rotate(10.000000) translate(-142.217428, -57.853085) "></path>
                    <path d="M158.065089,69.3659314 C157.793615,65.8010814 159.044603,61.1945212 158.838786,59.5201312 C158.385202,55.8300614 159.659442,51.9558349 159.327758,50.3098377 C158.986962,48.6186236 156.860979,44.6516854 156.1749,42.7662782 C155.554429,41.0611691 153.216905,39.758541 149.162329,38.858394" id="Line-7" stroke="#8FBA89" stroke-width="1" stroke-linecap="square" transform="translate(154.272949, 54.112163) rotate(18.000000) translate(-154.272949, -54.112163) "></path>
                    <path d="M167.211673,69.1986996 C167.042824,65.6335885 169.322261,61.7208626 169.795116,61.5672226 C171.04561,61.1609125 170.883463,51.0286202 170.677164,49.3825024 C170.465198,47.6911644 166.462749,44.4826432 166.036026,42.5970979 C165.650109,40.891864 164.636666,39.9022726 162.995696,39.6283238" id="Line-7" stroke="#8FBA89" stroke-width="1" stroke-linecap="square" transform="translate(166.907330, 54.413512) rotate(18.000000) translate(-166.907330, -54.413512) "></path>
                    <path d="M182.578307,68.6304828 C182.409458,65.7728928 184.688895,62.6366746 185.161751,62.5135255 C186.412245,62.1878505 186.250097,54.0663822 186.043798,52.746948 C185.831832,51.3912678 181.829383,48.8195 181.40266,47.3081543 C181.016744,45.9413359 179.655572,44.9952233 177.319146,44.4698166" id="Line-7" stroke="#8FBA89" stroke-width="1" stroke-linecap="square" transform="translate(181.752372, 56.550150) rotate(38.000000) translate(-181.752372, -56.550150) "></path>
                    <path d="M182.578307,68.6304828 C182.409458,65.7728928 184.688895,62.6366746 185.161751,62.5135255 C186.412245,62.1878505 186.250097,54.0663822 186.043798,52.746948 C185.831832,51.3912678 181.829383,48.8195 181.40266,47.3081543 C181.016744,45.9413359 179.655572,44.9952233 177.319146,44.4698166" id="Line-7" stroke="#8FBA89" stroke-width="1" stroke-linecap="square" transform="translate(181.752372, 56.550150) rotate(38.000000) translate(-181.752372, -56.550150) "></path>
                    <path d="M194.930826,69.5317585 C194.761976,66.6741686 197.041413,63.5379504 197.514269,63.4148013 C198.764763,63.0891263 198.602615,54.967658 198.396316,53.6482238 C198.373549,53.5026132 197.272447,52.5111761 195.093009,50.6739125" id="Line-7" stroke="#8FBA89" stroke-width="1" stroke-linecap="square" transform="translate(196.730013, 60.102836) rotate(48.000000) translate(-196.730013, -60.102836) "></path>
                    <path d="M208.209087,68.846521 C208.165046,64.9411683 209.423262,62.6585953 209.896117,62.5354462 C210.32428,61.7185259 211.131276,58.6697227 211.172589,56.3601576 C211.206633,54.4569461 211.987231,54.0048296 211.899312,53.4425217" id="Line-7" stroke="#8FBA89" stroke-width="1" stroke-linecap="square" transform="translate(210.057086, 61.144521) rotate(59.000000) translate(-210.057086, -61.144521) "></path>
                    <path d="M86.5,230.5 C80.8734219,222.608263 76.5715186,217.677619 73.5942901,215.708068 C72.3309098,214.872293 69.6210418,211.680379 67.0776441,210.748637 C64.777467,209.905996 60.4182523,209.323117 54,209" id="Line-7" stroke="#8FBA89" stroke-width="1" stroke-linecap="square"></path>
                </g>
            </g>
            <g id="leaf" transform="translate(270.000000, 567.000000)">
                <g id="leaf1">
                    <path d="M80.7355257,201.3571 C109.400125,201.3571 124.121737,177.673801 139.318912,156.562617 C154.516087,135.451434 148.424986,140.498375 150.574337,131.26903 C152.83759,121.550588 155.049952,108.336875 155.049952,97.5691418 C155.049952,87.6037691 151.363318,79.8605132 150.574337,73.0085815 C149.149318,60.6329524 149.024423,51.7107392 139.318912,41.7263001 C129.697786,31.8286717 118.620562,18.7851572 104.916424,14.1727759 C97.6800152,11.7372286 88.6241871,8.08595027 80.7355257,8.08595027 C70.0757751,8.08595027 62.0365809,-2.28594907 60.3912182,1.35709963 C57.2566784,8.29738141 70.0150186,27.4458134 80.7355257,48.6720786 C84.7908584,56.7015092 94.6925526,73.9043226 97.3515972,82.7896539 C97.9043135,84.6365834 94.0926955,87.7027542 94.5557651,89.5705885 C96.2946787,96.5846591 97.3515972,103.730626 97.3515972,110.892095 C97.3515972,116.971597 96.5899161,122.808847 95.2959258,128.383513 C94.2695858,132.805109 92.9083695,137.061512 91.3267281,141.142577 C90.4524488,143.398455 92.3163791,147.068734 91.3267281,149.215749 C75.8582787,182.774026 45.8526949,201.3571 80.7355257,201.3571 Z" id="Oval" fill="url(#linearGradient-2)" transform="translate(107.479344, 100.969259) scale(-1, 1) rotate(-50.000000) translate(-107.479344, -100.969259) "></path>
                    <path d="M211.659433,72.1945312 C170.125781,65.6439594 142.544956,64.4379175 128.916957,68.5764054 C76.4801161,84.5001842 63.6743006,122.830398 61.5,129.836478 C58.4780693,139.57381 58.4780693,160.794984 61.5,193.5" id="Line" stroke="#9FBC76" stroke-linecap="square"></path>
                    <path d="M60,181 C54.8874022,173.240819 51.2207355,168.301332 49,166.181539 C46.7792645,164.061746 43.1125978,162.001233 38,160" id="Line-4" stroke="#9FBC76" stroke-linecap="square"></path>
                    <path d="M82,163 C76.8874022,155.240819 73.2207355,150.301332 71,148.181539 C68.7792645,146.061746 65.1125978,144.001233 60,142" id="Line-4" stroke="#9FBC76" stroke-linecap="square" transform="translate(71.000000, 152.500000) scale(-1, 1) translate(-71.000000, -152.500000) "></path>
                    <path d="M124,116 C110.753724,110.827213 101.253724,107.534222 95.5,106.121026 C89.7462761,104.707831 80.2462761,103.334156 67,102" id="Line-4" stroke="#9FBC76" stroke-linecap="square" transform="translate(95.500000, 109.000000) scale(-1, 1) translate(-95.500000, -109.000000) "></path>
                    <path d="M95,146 C86.8663217,138.610304 81.0329883,133.906031 77.5,131.88718 C73.9670117,129.86833 68.1336783,127.905936 60,126" id="Line-4" stroke="#9FBC76" stroke-linecap="square" transform="translate(77.500000, 136.000000) scale(-1, 1) translate(-77.500000, -136.000000) "></path>
                    <path d="M141,105 C129.801087,98.5795492 120.870527,94.6627262 114.208321,93.2495308 C107.546114,91.8363355 94.476674,91.0864919 75,91" id="Line-4" stroke="#9FBC76" stroke-linecap="square" transform="translate(108.000000, 98.000000) scale(-1, 1) translate(-108.000000, -98.000000) "></path>
                    <path d="M152.045511,109.854779 C141.807934,94.9407153 134.060046,85.2776071 128.801847,80.865454 C123.543648,76.453301 113.927862,71.5465567 99.9544889,66.1452213" id="Line-4" stroke="#9FBC76" stroke-linecap="square" transform="translate(126.000000, 88.000000) scale(-1, 1) rotate(-40.000000) translate(-126.000000, -88.000000) "></path>
                    <path d="M172.727888,99.082303 C164.426023,87.5691097 157.902941,79.7952033 153.158642,75.7605836 C150.69076,73.6618617 144.1033,70.4541228 139.507693,68.110645 C136.681647,66.6695352 132.088379,63.670263 125.727888,59.1128284 C123.440379,57.9842841 123.361506,57.890287 125.49127,58.8308373" id="Line-4" stroke="#9FBC76" stroke-linecap="square" transform="translate(148.339439, 78.635910) scale(-1, 1) rotate(-50.000000) translate(-148.339439, -78.635910) "></path>
                    <path d="M180.033645,91.3021784 C176.107575,81.8694362 173.022716,75.5002861 170.77907,72.1947282 C169.611974,70.4752484 166.49667,67.8471527 164.323341,65.9271448 C162.986864,64.7464457 160.814642,62.2891464 157.806676,58.555247 C156.72488,57.6306323 156.68758,57.5536207 157.694775,58.3242121" id="Line-4" stroke="#9FBC76" stroke-linecap="square" transform="translate(168.500000, 74.550479) scale(-1, 1) rotate(-80.000000) translate(-168.500000, -74.550479) "></path>
                    <path d="M195.903514,87.0361346 C194.10376,83.0317717 192.425761,80.0922883 190.869516,78.2176845 C190.514617,77.7901843 188.522867,77.2059127 187.324086,75.3849567 C185.788446,73.0523094 184.952889,69.3795479 184.106299,68.7680545 C183.179288,68.0984722 182.408252,66.596512 181.793189,64.2621741 C180.470244,60.2844071 180.158078,58.5140273 180.856692,58.9510348" id="Line-4" stroke="#9FBC76" stroke-linecap="square" transform="translate(188.199032, 72.961141) scale(-1, 1) rotate(-80.000000) translate(-188.199032, -72.961141) "></path>
                    <path d="M108,132 C97.077632,124.979789 89.2442986,120.510729 84.5,118.592821 C79.7557014,116.674913 71.922368,114.81064 61,113" id="Line-4" stroke="#9FBC76" stroke-linecap="square" transform="translate(84.500000, 122.500000) scale(-1, 1) translate(-84.500000, -122.500000) "></path>
                    <path d="M73,181 C70.2113103,173.979789 68.2113103,169.510729 67,167.592821 C65.7886897,165.674913 63.7886897,163.81064 61,162" id="Line-4" stroke="#9FBC76" stroke-linecap="square" transform="translate(67.000000, 171.500000) scale(-1, 1) translate(-67.000000, -171.500000) "></path>
                    <path d="M59,163 C54.119793,155.610304 50.619793,150.906031 48.5,148.88718 C46.380207,146.86833 42.880207,144.905936 38,143" id="Line-4" stroke="#9FBC76" stroke-linecap="square"></path>
                    <path d="M59,147 C56.401306,142.136093 54.5735736,139.012846 53.5168027,137.630258 C52.2205967,135.934413 50.8173778,134.67637 50,133.904402 C48.1830346,132.18838 45.1830346,130.886912 41,130" id="Line-4" stroke="#9FBC76" stroke-linecap="square"></path>
                    <path d="M61,132 C58.6900498,126.563869 57.0653987,123.073181 56.1260469,121.527935 C54.9738637,119.63258 53.726558,118.226532 53,117.363744 C51.3849196,115.445836 48.7182529,113.991255 45,113" id="Line-4" stroke="#9FBC76" stroke-linecap="square"></path>
                    <path d="M67,116 C64.6900498,110.277757 63.0653987,106.603348 62.1260469,104.976774 C60.9738637,102.981663 59.726558,101.501612 59,100.593415 C57.3849196,98.5745642 54.7182529,97.043426 51,96" id="Line-4" stroke="#9FBC76" stroke-linecap="square"></path>
                    <path d="M74,105 C72.2675373,98.4194202 71.049049,94.1938502 70.3445351,92.32329 C69.4803978,90.0289122 68.5449185,88.3268541 68,87.2824269 C66.7886897,84.9607489 64.7886897,83.1999399 62,82" id="Line-4" stroke="#9FBC76" stroke-linecap="square"></path>
                    <path d="M82,96 C82.4109664,88.6918658 82.4109664,83.8585325 82,81.5 C81.4959199,78.6070889 80.0278473,74.8307961 79.7099782,73.5139096 C79.0033805,70.5865764 77.4333878,68.4152732 75,67" id="Line-4" stroke="#9FBC76" stroke-linecap="square"></path>
                    <path d="M89,89 C90.3160664,84.3282292 91.0451275,81.1154295 91.1871833,79.3616008 C91.4175774,76.517142 90.3521047,74.1840295 90.260603,72.9164808 C90.0445687,69.9238142 89.1362296,67.5179734 89,66.155677 C88.6971724,63.1274013 87.6971724,60.7421756 86,59" id="Line-4" stroke="#9FBC76" stroke-linecap="square"></path>
                    <path d="M103,79 C104.316066,74.7954063 105.045128,71.9038866 105.187183,70.3254408 C105.417577,67.7654278 104.352105,65.6656265 104.260603,64.5248327 C104.044569,61.8314328 103.13623,59.666176 103,58.4401093 C102.697172,55.7146612 101.697172,53.5679581 100,52" id="Line-4" stroke="#9FBC76" stroke-linecap="square"></path>
                    <path d="M117,72 C118.316066,67.4839549 119.045128,64.3782485 119.187183,62.6828808 C119.417577,59.9332373 118.352105,57.6778951 118.260603,56.4525981 C118.044569,53.559687 117.13623,51.2340409 117,49.9171545 C116.697172,46.9898213 115.697172,44.6841031 114,43" id="Line-4" stroke="#9FBC76" stroke-linecap="square"></path>
                    <path d="M128.654643,68.995134 C130.72711,64.479089 131.875194,61.3733826 132.098896,59.6780148 C132.461707,56.9283713 130.783861,54.6730292 130.63977,53.4477321 C130.299571,50.5548211 128.86917,48.229175 128.654643,46.9122885 C128.177768,43.9849553 126.603024,41.6792371 123.930413,39.995134" id="Line-4" stroke="#9FBC76" stroke-linecap="square" transform="translate(128.040274, 54.495134) rotate(8.000000) translate(-128.040274, -54.495134) "></path>
                    <path d="M139.195961,66.8122987 C142.221563,62.607705 143.897655,59.7161853 144.224238,58.1377395 C144.753907,55.5777265 142.304414,53.4779252 142.094054,52.3371315 C141.597397,49.6437315 139.50915,47.4784748 139.195961,46.2524081 C138.499769,43.5269599 136.334643,41.6964098 132.700583,40.7607577" id="Line-4" stroke="#9FBC76" stroke-linecap="square" transform="translate(138.499812, 53.786528) rotate(14.000000) translate(-138.499812, -53.786528) "></path>
                    <path d="M153.181779,65.7260175 C153.328712,62.8415545 153.571123,60.6490404 153.909012,59.1484752 C154.457019,56.7147733 156.397847,53.0495625 156.180205,51.9650555 C155.666353,49.404548 153.50581,47.3461252 153.181779,46.1805526 C152.461485,43.5895782 150.221401,41.8493475 146.461529,40.9598605" id="Line-4" stroke="#9FBC76" stroke-linecap="square" transform="translate(151.329340, 53.342939) rotate(14.000000) translate(-151.329340, -53.342939) "></path>
                    <path d="M165.045954,66.230735 C165.192887,63.346272 165.435298,61.1537579 165.773187,59.6531927 C166.321194,57.2194908 168.262022,53.55428 168.04438,52.469773 C167.530528,49.9092655 165.369985,47.8508426 165.045954,46.6852701 C164.325659,44.0942957 161.831261,43.2308397 157.562759,44.0949021" id="Line-4" stroke="#9FBC76" stroke-linecap="square" transform="translate(162.812042, 55.000750) rotate(30.000000) translate(-162.812042, -55.000750) "></path>
                    <path d="M176.235404,68.9929349 C175.292709,67.197868 174.990305,65.550052 175.328194,64.0494868 C175.454966,63.4864954 175.542313,61.0045504 175.774192,60.3569459 C176.544682,58.2050828 179.401125,56.0655995 179.23383,55.2319729 C178.719978,52.6714654 176.559435,50.6130426 176.235404,49.44747" id="Line-4" stroke="#9FBC76" stroke-linecap="square" transform="translate(177.217674, 59.220202) rotate(30.000000) translate(-177.217674, -59.220202) "></path>
                    <path d="M186.68376,69.8938735 C186.830693,67.0094105 187.073104,64.8168964 187.410993,63.3163312 C187.743081,61.8415241 189.160229,60.7336246 189.724987,59.2026896 L190.093917,57.8903956" id="Line-4" stroke="#9FBC76" stroke-linecap="square" transform="translate(188.388839, 63.892135) rotate(35.000000) translate(-188.388839, -63.892135) "></path>
                    <path d="M195.978887,70.1873191 C196.12582,67.3028561 196.36823,65.110342 196.706119,63.6097768" id="Line-4" stroke="#9FBC76" stroke-linecap="square" transform="translate(196.478887, 66.898548) rotate(45.000000) translate(-196.478887, -66.898548) "></path>
                    <path d="M95,146 C86.8663217,138.610304 81.0329883,133.906031 77.5,131.88718 C73.9670117,129.86833 68.1336783,127.905936 60,126" id="Line-4" stroke="#9FBC76" stroke-linecap="square" transform="translate(77.500000, 136.000000) scale(-1, 1) translate(-77.500000, -136.000000) "></path>
                </g>
            </g>
            <path d="M93.4490599,538.66803 C170.21664,538.66803 233.129085,477.434159 233.129085,414.473697 C233.129085,354.566558 216.177733,342.065185 144.581221,337.442387 C140.93212,337.206774 74.4186484,311 70.6957386,311 C-6.07184163,311 25.3790644,338.035573 25.3790644,400.996035 C25.3790644,463.956496 16.6814797,538.66803 93.4490599,538.66803 Z" id="Oval" fill="#EEB558" opacity="0.563895089"></path>
            <path d="M437.44906,344.66803 C514.21664,344.66803 577.129085,283.434159 577.129085,220.473697 C577.129085,160.566558 560.177733,148.065185 488.581221,143.442387 C484.93212,143.206774 418.418648,117 414.695739,117 C337.928158,117 369.379064,144.035573 369.379064,206.996035 C369.379064,269.956496 360.68148,344.66803 437.44906,344.66803 Z" id="Oval" fill="#EEB353" transform="translate(470.064542, 230.834015) scale(-1, 1) translate(-470.064542, -230.834015) "></path>
            <path d="M461.398384,314.50636 C538.165965,314.50636 602.129085,295.434159 602.129085,232.473697 C602.129085,172.566558 585.177733,160.065185 513.581221,155.442387 C509.93212,155.206774 443.418648,129 439.695739,129 C362.928158,129 394.379064,156.035573 394.379064,218.996035 C394.379064,281.956496 384.630804,314.50636 461.398384,314.50636 Z" id="Oval" fill="#F9C36B" opacity="0.813113839" transform="translate(495.064542, 221.753180) scale(-1, 1) translate(-495.064542, -221.753180) "></path>
            <path d="M73.3983844,465.50636 C150.165965,465.50636 214.129085,446.434159 214.129085,383.473697 C214.129085,323.566558 197.177733,311.065185 125.581221,306.442387 C121.93212,306.206774 55.4186484,280 51.6957386,280 C-25.0718416,280 6.37906442,307.035573 6.37906442,369.996035 C6.37906442,432.956496 -3.36919586,465.50636 73.3983844,465.50636 Z" id="Oval" fill="#F9C36B" opacity="0.813113839" transform="translate(107.064542, 372.753180) scale(-1, 1) translate(-107.064542, -372.753180) "></path>
        </g>
    </g>
</svg>