<?xml version="1.0" encoding="UTF-8"?>
<svg width="48px" height="43px" viewBox="0 0 48 43" version="1.1" xmlns="http://www.w3.org/2000/svg" xmlns:xlink="http://www.w3.org/1999/xlink">
    <!-- Generator: Sketch 51 (57462) - http://www.bohemiancoding.com/sketch -->
    <title>spa</title>
    <desc>Created with Sketch.</desc>
    <defs></defs>
    <g id="Capstone" stroke="none" stroke-width="1" fill="none" fill-rule="evenodd">
        <g id="plant-search" transform="translate(-204.000000, -607.000000)" fill="#615A5A" fill-rule="nonzero">
            <g id="spa" transform="translate(204.000000, 607.000000)">
                <path d="M47.3541382,15.3574346 C44.9341411,15.3699121 36.1033186,15.9486774 29.5341599,23.3238548 C26.7741633,26.1677709 25.0874987,29.39945 24,32.4286094 C22.9125013,29.39945 21.2258367,26.1677709 18.4658401,23.3238548 C11.8966814,15.9486774 3.06585887,15.3699121 0.645861825,15.3574346 C0.278362273,15.355515 -0.00330404958,15.6837699 2.92796846e-05,16.1080058 C0.019195923,18.7877944 0.595028554,28.2150449 7.39752025,35.2370125 C14.3991784,43.0901752 21.3333366,42.999953 24,42.999953 C26.6666634,42.999953 33.599155,43.091135 40.6024797,35.2370125 C47.4058048,28.2140851 47.9808041,18.7877944 47.9999707,16.1080058 C48.003304,15.6837699 47.7216377,15.355515 47.3541382,15.3574346 Z M23.9983333,25.9729295 C25.0666654,24.1636883 26.2983305,22.5387305 27.6724955,21.1239711 C29.2633269,19.3377653 30.9708248,17.9278049 32.6941561,16.787551 C31.3241577,10.0208928 28.3841613,4.01728337 24.6333326,0.257708896 C24.290833,-0.0859029653 23.7150003,-0.0859029653 23.3716674,0.257708896 C19.6225053,4.01440394 16.6825089,10.0122546 15.3100106,16.7731539 C17.0075085,17.8961312 18.6850065,19.2820963 20.2450046,21.033749 C21.6649967,22.4991876 22.925321,24.1577071 23.9983333,25.9729295 Z" id="Shape"></path>
            </g>
        </g>
    </g>
</svg>