<?xml version="1.0" encoding="UTF-8"?>
<svg width="37px" height="43px" viewBox="0 0 37 43" version="1.1" xmlns="http://www.w3.org/2000/svg" xmlns:xlink="http://www.w3.org/1999/xlink">
    <!-- Generator: Sketch 51 (57462) - http://www.bohemiancoding.com/sketch -->
    <title>user</title>
    <desc>Created with Sketch.</desc>
    <defs></defs>
    <g id="Capstone" stroke="none" stroke-width="1" fill="none" fill-rule="evenodd">
        <g id="plant-search" transform="translate(-307.000000, -606.000000)" fill="#615A5A" fill-rule="nonzero">
            <g id="navbar" transform="translate(-5.000000, 591.000000)">
                <g id="user" transform="translate(312.000000, 15.000000)">
                    <path d="M25.9,25.5675676 C23.5296875,25.5675676 22.3899554,26.9085239 18.5,26.9085239 C14.6100446,26.9085239 13.4785714,25.5675676 11.1,25.5675676 C4.971875,25.5675676 0,30.6129158 0,36.8316008 L0,38.977131 C0,41.1980899 1.77566964,43 3.96428571,43 L33.0357143,43 C35.2243304,43 37,41.1980899 37,38.977131 L37,36.8316008 C37,30.6129158 32.028125,25.5675676 25.9,25.5675676 Z M33.3,38.3513514 L3.7,38.3513514 L3.7,36.2262548 C3.7,32.2749035 6.96272727,29.0540541 10.9654545,29.0540541 C12.1931818,29.0540541 14.1861364,30.3822394 18.5,30.3822394 C22.8475,30.3822394 24.7984091,29.0540541 26.0345455,29.0540541 C30.0372727,29.0540541 33.3,32.2749035 33.3,36.2262548 L33.3,38.3513514 Z M17.8833333,24.4054054 C24.3519097,24.4054054 29.6,18.9396115 29.6,12.2027027 C29.6,5.46579392 24.3519097,0 17.8833333,0 C11.4147569,0 6.16666667,5.46579392 6.16666667,12.2027027 C6.16666667,18.9396115 11.4147569,24.4054054 17.8833333,24.4054054 Z M19.1166667,3.48648649 C23.534184,3.48648649 27.1333333,7.1388232 27.1333333,11.6216216 C27.1333333,16.10442 23.534184,19.7567568 19.1166667,19.7567568 C14.6991493,19.7567568 11.1,16.10442 11.1,11.6216216 C11.1,7.1388232 14.6991493,3.48648649 19.1166667,3.48648649 Z" id="Shape"></path>
                </g>
            </g>
        </g>
    </g>
</svg>