<?xml version="1.0" encoding="UTF-8"?>
<svg width="37px" height="43px" viewBox="0 0 37 43" version="1.1" xmlns="http://www.w3.org/2000/svg" xmlns:xlink="http://www.w3.org/1999/xlink">
    <!-- Generator: Sketch 51 (57462) - http://www.bohemiancoding.com/sketch -->
    <title>calendar</title>
    <desc>Created with Sketch.</desc>
    <defs></defs>
    <g id="Capstone" stroke="none" stroke-width="1" fill="none" fill-rule="evenodd">
        <g id="plant-search" transform="translate(-123.000000, -606.000000)" fill="#615A5A">
            <g id="navbar" transform="translate(-5.000000, 591.000000)">
                <g id="calendar" transform="translate(128.000000, 15.000000)">
                    <g id="pagelines" transform="translate(19.356268, 26.714924) rotate(13.000000) translate(-19.356268, -26.714924) translate(10.356268, 14.035437)">
                        <path d="M17.2456782,14.9760423 C14.770866,21.7504465 8.84209617,17.6521054 8.84209617,17.6521054 C7.0230418,21.7058455 4.01823346,24.3125292 0.550801429,24.3273962 C-0.172328827,24.3273962 -0.194786289,23.1182122 0.550801429,23.1182122 C3.44332245,23.1033451 5.96304962,21.00214 7.61142728,17.6620167 C5.76542396,18.4499687 2.28451745,19.0446494 0.353175769,13.588454 C5.24890235,11.363357 7.49913998,14.1434893 8.36150649,15.8432849 C8.80616423,14.6341009 9.12506018,13.3208476 9.33166882,11.893614 C9.33166882,11.893614 3.05705412,12.9789062 2.61688787,7.03209926 C7.96625517,4.65833214 9.47090509,10.8331001 9.47090509,10.8331001 C9.54276896,10.0055028 9.61912433,8.22641633 9.61912433,8.18677095 C9.61912433,8.18677095 4.84466804,4.53444033 7.90786577,0 C13.5042651,2.13093917 10.665642,8.04801212 10.665642,8.04801212 C10.6880995,8.12730288 10.6880995,9.22746217 10.665642,9.70320673 C10.665642,9.70320673 12.6957965,5.29265822 16.7920375,6.85369505 C16.6033948,13.4942962 10.41861,12.1265306 10.41861,12.1265306 C10.2209843,13.4843848 9.91556282,14.7728597 9.5203115,15.9671768 C9.5203115,15.9671768 13.2482501,11.4178694 17.2456782,14.9760423 Z" id="Shape" fill-rule="nonzero"></path>
                    </g>
                    <g id="Shape">
                        <g fill-rule="nonzero">
                            <path d="M33.0357143,5.375 L29.0714286,5.375 L29.0714286,1.0078125 C29.0714286,0.453515625 28.6254464,0 28.0803571,0 L24.7767857,0 C24.2316964,0 23.7857143,0.453515625 23.7857143,1.0078125 L23.7857143,5.375 L13.2142857,5.375 L13.2142857,1.0078125 C13.2142857,0.453515625 12.7683036,0 12.2232143,0 L8.91964286,0 C8.37455357,0 7.92857143,0.453515625 7.92857143,1.0078125 L7.92857143,5.375 L3.96428571,5.375 C1.77566964,5.375 0,7.18066406 0,9.40625 L0,38.96875 C0,41.1943359 1.77566964,43 3.96428571,43 L33.0357143,43 C35.2243304,43 37,41.1943359 37,38.96875 L37,9.40625 C37,7.18066406 35.2243304,5.375 33.0357143,5.375 Z M32.5401786,38.96875 L4.45982143,38.96875 C4.18727679,38.96875 3.96428571,38.7419922 3.96428571,38.4648438 L3.96428571,13.4375 L33.0357143,13.4375 L33.0357143,38.4648438 C33.0357143,38.7419922 32.8127232,38.96875 32.5401786,38.96875 Z"></path>
                        </g>
                    </g>
                </g>
            </g>
        </g>
    </g>
</svg>