<?xml version="1.0" encoding="UTF-8"?>
<svg width="375px" height="667px" viewBox="0 0 375 667" version="1.1" xmlns="http://www.w3.org/2000/svg" xmlns:xlink="http://www.w3.org/1999/xlink">
    <!-- Generator: Sketch 51 (57462) - http://www.bohemiancoding.com/sketch -->
    <title> Profile -edit</title>
    <desc>Created with Sketch.</desc>
    <defs>
        <linearGradient x1="50%" y1="0%" x2="50%" y2="100%" id="linearGradient-1">
            <stop stop-color="#75BB7D" offset="0%"></stop>
            <stop stop-color="#0A8216" offset="100%"></stop>
        </linearGradient>
    </defs>
    <g id="-Profile--edit" stroke="none" stroke-width="1" fill="none" fill-rule="evenodd">
        <rect fill="#EAA22C" x="0" y="0" width="375" height="667"></rect>
        <g id="checklist" transform="translate(0.000000, 122.000000)" fill="#EAA22C">
            <rect id="Rectangle-5" x="0" y="0" width="375" height="499"></rect>
        </g>
        <g id="bg" transform="translate(-65.000000, 10.000000)">
            <path d="M98.4490599,485.66803 C175.21664,485.66803 238.129085,424.434159 238.129085,361.473697 C238.129085,301.566558 221.177733,289.065185 149.581221,284.442387 C145.93212,284.206774 79.4186484,258 75.6957386,258 C-1.07184163,258 30.3790644,285.035573 30.3790644,347.996035 C30.3790644,410.956496 21.6814797,485.66803 98.4490599,485.66803 Z" id="Oval" fill="#EEB558" opacity="0.563895089"></path>
            <path d="M73.3983844,403.50636 C150.165965,403.50636 214.129085,384.434159 214.129085,321.473697 C214.129085,261.566558 197.177733,249.065185 125.581221,244.442387 C121.93212,244.206774 55.4186484,218 51.6957386,218 C-25.0718416,218 6.37906442,245.035573 6.37906442,307.996035 C6.37906442,370.956496 -3.36919586,403.50636 73.3983844,403.50636 Z" id="Oval" fill="#F9C36B" opacity="0.813113839" transform="translate(107.064542, 310.753180) scale(-1, 1) translate(-107.064542, -310.753180) "></path>
            <g id="leaf2" transform="translate(28.000000, 0.000000)">
                <g>
                    <path d="M78.60866,251.536992 C117.878425,251.536992 117.878425,233.787788 145.455838,207.423705 C154.41506,198.858664 173.153905,176.295744 174.093689,156.172656 C174.228675,153.282291 174.093689,133.479982 174.093689,130.536992 C174.093689,114.720681 164.613429,108.652208 160.152342,97.5166494 C155.026637,84.7221049 154.326952,67.3915853 145.455838,56.9097088 C138.012662,48.1150466 134.083972,33.9372168 122.254981,28.0865262 C108.608648,21.3369675 94.5269034,17.8075486 78.60866,17.8075486 C62.4687619,17.8075486 50.0447559,11.4240293 50.9285234,17.8075486 C51.9945747,25.5077188 69.0855485,39.2073944 78.60866,56.9097088 C81.4073375,62.1121123 82.5852126,72.7133248 84.7252263,79.8603755 C93.6736904,109.745756 93.6736904,135.017174 93.6736904,156.172656 C93.6736904,177.144535 86.9493829,193.692289 78.60866,207.423705 C60.371844,237.447157 37.1121642,251.536992 78.60866,251.536992 Z" id="Oval" fill="url(#linearGradient-1)" fill-rule="evenodd" transform="translate(112.518915, 133.253710) scale(-1, 1) rotate(-30.000000) translate(-112.518915, -133.253710) "></path>
                    <path d="M97.5,250.5 C91.3540455,243.158849 86.6550434,238.572203 83.4029938,236.740063 C82.0229938,235.962598 79.0629842,232.993376 76.2848113,232.126639 C73.7723101,231.342787 68.2359614,230.782456 59.6757652,230.445648" id="Line-7" stroke="#8FBA89" stroke-width="1" stroke-linecap="square"></path>
                    <path d="M110.01303,244.800147 C103.867076,237.458996 99.1680737,232.87235 95.9160241,231.04021 C94.9960241,230.5219 93.7142897,230.102605 92.0708209,229.782326" id="Line-7" stroke="#8FBA89" stroke-width="1" stroke-linecap="square" transform="translate(101.041926, 237.291237) scale(-1, 1) rotate(30.000000) translate(-101.041926, -237.291237) "></path>
                    <path d="M112.808096,222.10377 C106.662141,214.762619 101.963139,210.175974 98.7110893,208.343833 C97.3310893,207.566368 94.3710797,204.597146 91.5929068,203.730409 C90.0920729,203.262178 85.7718949,202.579346 78.6323726,201.681913" id="Line-7" stroke="#8FBA89" stroke-width="1" stroke-linecap="square" transform="translate(95.720234, 211.892842) scale(-1, 1) rotate(30.000000) translate(-95.720234, -211.892842) "></path>
                    <path d="M115.774997,202.334881 C109.124215,195.900936 104.039238,191.8811 100.520066,190.275372 C99.0267128,189.593984 95.8235687,186.991693 92.8171973,186.232066 C90.0983198,185.545081 84.1072166,185.053995 74.8438877,184.758808" id="Line-7" stroke="#8FBA89" stroke-width="1" stroke-linecap="square" transform="translate(95.309442, 193.546845) scale(-1, 1) rotate(25.000000) translate(-95.309442, -193.546845) "></path>
                    <path d="M125.536331,176.562199 C120.267131,172.831007 116.441799,170.304541 114.060334,168.982802 C111.969473,167.822352 108.822355,166.092117 107.199646,165.499265 C105.334604,164.817878 101.033426,163.144743 97.2787817,162.385116 C95.3984577,162.004695 88.2084747,158.453562 83.1694769,159.420591 C80.4623398,159.940116 76.4813331,161.796489 71.2264567,164.989713" id="Line-7" stroke="#8FBA89" stroke-width="1" stroke-linecap="square" transform="translate(98.381394, 167.908275) scale(-1, 1) rotate(25.000000) translate(-98.381394, -167.908275) "></path>
                    <path d="M125.536331,176.562199 C120.267131,172.831007 116.441799,170.304541 114.060334,168.982802 C111.969473,167.822352 108.822355,166.092117 107.199646,165.499265 C105.334604,164.817878 101.033426,163.144743 97.2787817,162.385116 C95.3984577,162.004695 88.2084747,158.453562 83.1694769,159.420591 C80.4623398,159.940116 76.4813331,161.796489 71.2264567,164.989713" id="Line-7" stroke="#8FBA89" stroke-width="1" stroke-linecap="square" transform="translate(98.381394, 167.908275) scale(-1, 1) rotate(25.000000) translate(-98.381394, -167.908275) "></path>
                    <path d="M135.160874,153.814376 C129.891674,150.083184 126.066342,147.556718 123.684877,146.234979 C121.594016,145.074528 118.446898,143.344293 116.824188,142.751442 C115.797487,142.37634 114.516294,142.306108 112.510652,141.647761 C110.872969,141.110195 108.591046,139.978747 106.903325,139.637293 C105.677255,139.389239 105.063763,139.807816 101.391003,138.995185 C99.4311471,138.56155 94.5473277,136.336292 92.7940197,136.672768 C91.9460196,136.835507 90.8373991,138.007554 88.6863306,138.588215 C86.1777366,139.265387 82.451803,139.467016 79.147807,141.377149 C77.2096392,142.497658 74.381605,144.919122 70.6637043,148.641542" id="Line-7" stroke="#8FBA89" stroke-width="1" stroke-linecap="square" transform="translate(102.912289, 145.226324) scale(-1, 1) rotate(25.000000) translate(-102.912289, -145.226324) "></path>
                    <path d="M135.160874,153.814376 C129.891674,150.083184 126.066342,147.556718 123.684877,146.234979 C121.594016,145.074528 118.446898,143.344293 116.824188,142.751442 C115.797487,142.37634 114.516294,142.306108 112.510652,141.647761 C110.872969,141.110195 108.591046,139.978747 106.903325,139.637293 C105.677255,139.389239 105.063763,139.807816 101.391003,138.995185 C99.4311471,138.56155 94.5473277,136.336292 92.7940197,136.672768 C91.9460196,136.835507 90.8373991,138.007554 88.6863306,138.588215 C86.1777366,139.265387 82.451803,139.467016 79.147807,141.377149 C77.2096392,142.497658 74.381605,144.919122 70.6637043,148.641542" id="Line-7" stroke="#8FBA89" stroke-width="1" stroke-linecap="square" transform="translate(102.912289, 145.226324) scale(-1, 1) rotate(25.000000) translate(-102.912289, -145.226324) "></path>
                    <path d="M149.352521,127.171923 C144.083321,123.440731 140.257989,120.914265 137.876523,119.592526 C135.785663,118.432075 132.638544,116.701841 131.015835,116.108989 C129.989134,115.733887 128.70794,115.663655 126.702299,115.005308 C125.064615,114.467742 122.782693,113.336294 121.094971,112.99484 C119.868902,112.746786 119.25541,113.165363 115.58265,112.352732 C113.622794,111.919097 108.738974,109.69384 106.985666,110.030315 C106.137666,110.193054 105.029046,111.365101 102.877977,111.945762 C100.369383,112.622934 96.6434496,112.824563 93.3394536,114.734696 C91.4012858,115.855205 85.797529,120.49036 76.5281832,128.640162" id="Line-7" stroke="#8FBA89" stroke-width="1" stroke-linecap="square" transform="translate(112.940352, 119.317991) scale(-1, 1) rotate(25.000000) translate(-112.940352, -119.317991) "></path>
                    <path d="M182.069419,87.8803015 C176.800219,84.1491092 172.974887,81.6226435 170.593422,80.3009044 C168.502561,79.140454 165.355442,77.4102191 163.732733,76.8173674 C162.706032,76.4422654 161.424839,76.3720338 159.419197,75.7136864 C157.781514,75.1761204 155.499591,74.0446728 153.811869,73.7032186 C152.5858,73.4551642 151.972308,73.8737414 148.299548,73.0611111 C146.339692,72.6274757 141.455873,70.4022182 139.702565,70.7386938 C138.854565,70.9014327 138.9151,70.1994001 133.989672,73.3087124" id="Line-7" stroke="#8FBA89" stroke-width="1" stroke-linecap="square" transform="translate(158.029546, 79.292250) scale(-1, 1) rotate(-20.000000) translate(-158.029546, -79.292250) "></path>
                    <path d="M193.91428,81.2937955 C188.64508,77.5626033 184.819748,75.0361376 182.438283,73.7143985 C180.347422,72.5539481 177.200303,70.8237131 175.577594,70.2308614 C174.550893,69.8557595 173.2697,69.7855278 171.264058,69.1271804 C169.626375,68.5896145 167.344452,67.4581668 165.65673,67.1167126 C164.430661,66.8686582 163.817169,67.2872354 160.144409,66.4746051 C159.225702,66.271333 157.820297,65.7996377 155.928195,65.059519" id="Line-7" stroke="#8FBA89" stroke-width="1" stroke-linecap="square" transform="translate(174.921238, 73.176657) scale(-1, 1) rotate(-30.000000) translate(-174.921238, -73.176657) "></path>
                    <path d="M206.412676,74.0211634 C201.143476,70.2899711 197.318144,67.7635055 194.936678,66.4417664 C193.542771,65.6681328 191.662846,64.405537 189.296901,62.6539792" id="Line-7" stroke="#8FBA89" stroke-width="1" stroke-linecap="square" transform="translate(197.854788, 68.337571) scale(-1, 1) rotate(-50.000000) translate(-197.854788, -68.337571) "></path>
                    <path d="M182.069419,87.8803015 C176.800219,84.1491092 172.974887,81.6226435 170.593422,80.3009044 C168.502561,79.140454 165.355442,77.4102191 163.732733,76.8173674 C162.706032,76.4422654 161.424839,76.3720338 159.419197,75.7136864 C157.781514,75.1761204 155.499591,74.0446728 153.811869,73.7032186 C152.5858,73.4551642 151.972308,73.8737414 148.299548,73.0611111 C146.339692,72.6274757 141.455873,70.4022182 139.702565,70.7386938 C138.854565,70.9014327 138.9151,70.1994001 133.989672,73.3087124" id="Line-7" stroke="#8FBA89" stroke-width="1" stroke-linecap="square" transform="translate(158.029546, 79.292250) scale(-1, 1) rotate(-20.000000) translate(-158.029546, -79.292250) "></path>
                    <path d="M166.241037,95.0420453 C162.171721,92.6076237 159.21748,90.9592276 157.378314,90.0968571 C155.763577,89.3397196 153.333109,88.2108254 152.079917,87.8240185 C151.287013,87.5792827 150.297568,87.5334599 148.748644,87.1039202 C147.483888,86.7531846 145.721596,86.01497 144.418197,85.7921877 C143.471324,85.6303443 142.997534,85.9034456 140.161122,85.3732438 C138.993206,85.1549289 136.766359,86.0975432 135.057638,85.7921877 C134.551935,85.7018166 132.881956,85.3231093 132.572735,85.3732438 C131.917839,85.479423 132.010747,84.7288621 130.349512,85.1077154 C128.412166,85.5495373 125.534689,85.6810906 122.983067,86.9273592 C121.486252,87.6584369 117.158563,90.6826505 110,96" id="Line-7" stroke="#8FBA89" stroke-width="1" stroke-linecap="square" transform="translate(138.120519, 90.500000) scale(-1, 1) translate(-138.120519, -90.500000) "></path>
                    <path d="M223.11086,63.1574939 C182.07229,64.7776551 154.926218,68.5432481 141.672643,74.4542728 C105.417966,90.623668 89.2829704,122.275233 83.5,138.782985 C74.5459202,164.342813 74.5459202,193.248485 83.5,225.5 L102.503182,259.498284" id="Line-6" stroke-opacity="0.702813632" stroke="#ADD6A2" stroke-width="1" stroke-linecap="square"></path>
                    <path d="M82.2523546,208.390845 C75.9778016,200.499108 71.1804772,195.568464 67.8603815,193.598913 C66.4515063,192.763138 63.4295612,189.571224 60.5932576,188.639482 C58.0281846,187.796841 53.1669487,187.213962 46.0095498,186.890845" id="Line-7" stroke="#8FBA89" stroke-width="1" stroke-linecap="square" transform="translate(64.130952, 197.640845) rotate(10.000000) translate(-64.130952, -197.640845) "></path>
                    <path d="M78.8699081,186.015246 C72.3777026,177.227447 67.413968,171.736956 63.9787043,169.543773 C62.5209578,168.613101 59.3941871,165.058764 56.4594975,164.021228 C53.8054469,163.082909 48.7755838,162.433848 41.3699081,162.074043" id="Line-7" stroke="#8FBA89" stroke-width="1" stroke-linecap="square" transform="translate(60.119908, 174.044644) rotate(10.000000) translate(-60.119908, -174.044644) "></path>
                    <path d="M79.2938185,164.015246 C72.801613,155.227447 67.8378784,149.736956 64.4026147,147.543773 C62.9448682,146.613101 59.8180975,143.058764 56.8834079,142.021228 C54.2293573,141.082909 49.1994941,140.433848 41.7938185,140.074043" id="Line-7" stroke="#8FBA89" stroke-width="1" stroke-linecap="square" transform="translate(60.543818, 152.044644) rotate(10.000000) translate(-60.543818, -152.044644) "></path>
                    <path d="M81.8298534,151.288193 C76.0059532,139.62982 71.5531836,132.345836 68.4715448,129.436241 C67.1638582,128.201561 64.3589561,123.486183 61.7263624,122.109731 C59.3455188,120.864907 54.833428,120.003826 48.1900899,119.52649" id="Line-7" stroke="#8FBA89" stroke-width="1" stroke-linecap="square" transform="translate(65.009972, 135.407341) rotate(10.000000) translate(-65.009972, -135.407341) "></path>
                    <path d="M85.987188,139.369845 C80.9221206,126.487498 77.0495306,118.438792 74.369418,115.223728 C73.2321181,113.859423 70.7926845,108.648993 68.5031081,107.128032 C66.4324797,105.752517 62.5082977,104.801035 56.7305622,104.273584" id="Line-7" stroke="#8FBA89" stroke-width="1" stroke-linecap="square" transform="translate(71.358875, 121.821715) rotate(10.000000) translate(-71.358875, -121.821715) "></path>
                    <path d="M90.2988825,129.449024 C91.1462104,122.084142 91.3559824,117.203737 90.9281987,114.807808 C90.338528,111.505185 88.28811,108.986865 87.8410536,107.435642 C86.8558175,104.01701 87.0894425,100.612058 86.3689873,99.0871391 C85.6287406,97.5203289 81.684678,93.3282383 80.1944365,91.5815197 C78.8467041,90.0018367 76.2925292,88.9091249 72.5319118,88.3033845" id="Line-7" stroke="#8FBA89" stroke-width="1" stroke-linecap="square" transform="translate(81.837692, 108.876204) rotate(10.000000) translate(-81.837692, -108.876204) "></path>
                    <path d="M101.860265,108.43693 C101.270594,105.134307 102.325666,100.807496 101.878609,99.2562728 C100.893373,95.8376407 101.126998,92.4326894 100.406543,90.90777 C99.6662963,89.3409599 95.7222337,85.1488693 94.2319923,83.4021507 C92.8842599,81.8224676 90.330085,80.7297559 86.5694676,80.1240154" id="Line-7" stroke="#8FBA89" stroke-width="1" stroke-linecap="square" transform="translate(94.280944, 94.280473) rotate(10.000000) translate(-94.280944, -94.280473) "></path>
                    <path d="M112.338524,96.3061001 C111.872925,92.8681969 112.706,88.3641545 112.353008,86.7493907 C111.575075,83.1907269 111.759543,79.6463044 111.190678,78.0589222 C110.606186,76.4279335 107.491989,72.0641293 106.315307,70.2458628 C105.25115,68.6014739 103.234396,67.4640032 100.265046,66.8334508" id="Line-7" stroke="#8FBA89" stroke-width="1" stroke-linecap="square" transform="translate(106.353959, 81.569775) rotate(10.000000) translate(-106.353959, -81.569775) "></path>
                    <path d="M125.53991,84.3061001 C125.074311,80.8681969 125.907386,76.3641545 125.554394,74.7493907 C124.776461,71.1907269 124.960929,67.6463044 124.392064,66.0589222 C123.807572,64.4279335 120.693375,60.0641293 119.516693,58.2458628 C118.452536,56.6014739 116.435782,55.4640032 113.466432,54.8334508" id="Line-7" stroke="#8FBA89" stroke-width="1" stroke-linecap="square" transform="translate(119.555345, 69.569775) rotate(10.000000) translate(-119.555345, -69.569775) "></path>
                    <path d="M134.198277,79.1613245 C133.897223,75.5964745 134.435886,70.9261175 134.207643,69.2517275 C133.704634,65.5616577 136.312363,60.1846215 135.944536,58.5386242 C135.566606,56.8474101 131.064525,54.0242034 130.303687,52.1387962 C129.615606,50.4336871 128.31158,49.2542146 126.391609,48.6003787" id="Line-7" stroke="#8FBA89" stroke-width="1" stroke-linecap="square" transform="translate(131.185921, 63.880852) rotate(10.000000) translate(-131.185921, -63.880852) "></path>
                    <path d="M145.389687,73.1335576 C145.088633,69.5687077 146.475934,64.9621474 146.247691,63.2877575 C145.744682,59.5976877 147.157769,55.7234612 146.789943,54.077464 C146.412013,52.3862499 144.054372,48.4193116 143.293534,46.5339045 C142.605454,44.8287954 140.701949,43.5083645 137.583019,42.5726119" id="Line-7" stroke="#8FBA89" stroke-width="1" stroke-linecap="square" transform="translate(142.217428, 57.853085) rotate(10.000000) translate(-142.217428, -57.853085) "></path>
                    <path d="M158.065089,69.3659314 C157.793615,65.8010814 159.044603,61.1945212 158.838786,59.5201312 C158.385202,55.8300614 159.659442,51.9558349 159.327758,50.3098377 C158.986962,48.6186236 156.860979,44.6516854 156.1749,42.7662782 C155.554429,41.0611691 153.216905,39.758541 149.162329,38.858394" id="Line-7" stroke="#8FBA89" stroke-width="1" stroke-linecap="square" transform="translate(154.272949, 54.112163) rotate(18.000000) translate(-154.272949, -54.112163) "></path>
                    <path d="M167.211673,69.1986996 C167.042824,65.6335885 169.322261,61.7208626 169.795116,61.5672226 C171.04561,61.1609125 170.883463,51.0286202 170.677164,49.3825024 C170.465198,47.6911644 166.462749,44.4826432 166.036026,42.5970979 C165.650109,40.891864 164.636666,39.9022726 162.995696,39.6283238" id="Line-7" stroke="#8FBA89" stroke-width="1" stroke-linecap="square" transform="translate(166.907330, 54.413512) rotate(18.000000) translate(-166.907330, -54.413512) "></path>
                    <path d="M182.578307,68.6304828 C182.409458,65.7728928 184.688895,62.6366746 185.161751,62.5135255 C186.412245,62.1878505 186.250097,54.0663822 186.043798,52.746948 C185.831832,51.3912678 181.829383,48.8195 181.40266,47.3081543 C181.016744,45.9413359 179.655572,44.9952233 177.319146,44.4698166" id="Line-7" stroke="#8FBA89" stroke-width="1" stroke-linecap="square" transform="translate(181.752372, 56.550150) rotate(38.000000) translate(-181.752372, -56.550150) "></path>
                    <path d="M182.578307,68.6304828 C182.409458,65.7728928 184.688895,62.6366746 185.161751,62.5135255 C186.412245,62.1878505 186.250097,54.0663822 186.043798,52.746948 C185.831832,51.3912678 181.829383,48.8195 181.40266,47.3081543 C181.016744,45.9413359 179.655572,44.9952233 177.319146,44.4698166" id="Line-7" stroke="#8FBA89" stroke-width="1" stroke-linecap="square" transform="translate(181.752372, 56.550150) rotate(38.000000) translate(-181.752372, -56.550150) "></path>
                    <path d="M194.930826,69.5317585 C194.761976,66.6741686 197.041413,63.5379504 197.514269,63.4148013 C198.764763,63.0891263 198.602615,54.967658 198.396316,53.6482238 C198.373549,53.5026132 197.272447,52.5111761 195.093009,50.6739125" id="Line-7" stroke="#8FBA89" stroke-width="1" stroke-linecap="square" transform="translate(196.730013, 60.102836) rotate(48.000000) translate(-196.730013, -60.102836) "></path>
                    <path d="M208.209087,68.846521 C208.165046,64.9411683 209.423262,62.6585953 209.896117,62.5354462 C210.32428,61.7185259 211.131276,58.6697227 211.172589,56.3601576 C211.206633,54.4569461 211.987231,54.0048296 211.899312,53.4425217" id="Line-7" stroke="#8FBA89" stroke-width="1" stroke-linecap="square" transform="translate(210.057086, 61.144521) rotate(59.000000) translate(-210.057086, -61.144521) "></path>
                    <path d="M86.5,230.5 C80.8734219,222.608263 76.5715186,217.677619 73.5942901,215.708068 C72.3309098,214.872293 69.6210418,211.680379 67.0776441,210.748637 C64.777467,209.905996 60.4182523,209.323117 54,209" id="Line-7" stroke="#8FBA89" stroke-width="1" stroke-linecap="square"></path>
                </g>
            </g>
        </g>
    </g>
</svg>