<?xml version="1.0" encoding="UTF-8"?>
<svg width="23px" height="24px" viewBox="0 0 23 24" version="1.1" xmlns="http://www.w3.org/2000/svg" xmlns:xlink="http://www.w3.org/1999/xlink">
    <!-- Generator: Sketch 51 (57462) - http://www.bohemiancoding.com/sketch -->
    <title>wrench</title>
    <desc>Created with Sketch.</desc>
    <defs></defs>
    <g id="Capstone" stroke="none" stroke-width="1" fill="none" fill-rule="evenodd">
        <g id="Profile" transform="translate(-336.000000, -140.000000)" fill="#615A5A" fill-rule="nonzero">
            <g id="wrench" transform="translate(309.000000, 123.000000)">
                <path d="M49.8082341,22.1139829 C49.7076094,21.6907025 49.1999936,21.5472653 48.9044085,21.8557022 L45.5640269,25.3413203 L42.5147383,24.8111651 L42.0066732,21.6292964 L45.3470548,18.1436783 C45.6444368,17.8333665 45.5011364,17.3046175 45.0927977,17.1986802 C42.964405,16.6483688 40.6208371,17.2413364 38.9573846,18.9766454 C37.1766863,20.8347667 36.68659,23.5281989 37.4277989,25.8766317 L27.841946,35.879268 C26.7193513,37.0506719 26.7193513,38.9500431 27.841946,40.1214471 C28.9645406,41.292851 30.78477,41.292851 31.9073646,40.1214471 L41.4851317,30.1272482 C43.73661,30.9105279 46.3128725,30.3934977 48.1052505,28.5231889 C49.7704999,26.7855361 50.3378616,24.3363223 49.8082341,22.1139829 Z M29.8751045,39.1248865 C29.2798913,39.1248865 28.7969824,38.6209813 28.7969824,37.9998888 C28.7969824,37.3783275 29.2798913,36.874891 29.8751045,36.874891 C30.4703178,36.874891 30.9532266,37.3783275 30.9532266,37.9998888 C30.9532266,38.6209813 30.4703178,39.1248865 29.8751045,39.1248865 Z" id="Shape"></path>
            </g>
        </g>
    </g>
</svg>